<?xml version="1.0" encoding="iso-8859-1"?>

<!DOCTYPE svg PUBLIC "-//W3C//DTD SVG 1.1//EN" "http://www.w3.org/Graphics/SVG/1.1/DTD/svg11.dtd">
<!-- Uploaded to: SVG Repo, www.svgrepo.com, Generator: SVG Repo Mixer Tools -->
<svg height="800px" width="800px" version="1.1" id="_x35_" xmlns="http://www.w3.org/2000/svg" xmlns:xlink="http://www.w3.org/1999/xlink" 
	 viewBox="0 0 512 512"  xml:space="preserve">
<g>
	<path style="fill:#B4894D;" d="M321.736,446.528c23.526,0,42.602-19.079,42.602-42.61c0-19.3-12.841-35.579-30.43-40.822
		l14.206-56.572c26.372-18.264,38.208-49.372,38.208-76.427c0-6.086,0,0,0,0c47.431,37.874,102.215-16.909,102.215-16.909
		L344.049,111.736H167.943L23.455,213.188c0,0,54.792,54.784,102.215,16.909c0,0,0-6.086,0,0c0,27.054,11.844,58.163,38.215,76.427
		l14.206,56.572c-17.596,5.243-30.437,21.522-30.437,40.822c0,23.531,19.076,42.61,42.61,42.61H321.736z"/>
	<path style="fill:#A98249;" d="M150.555,123.946l-52.639,36.958l261.946,261.945c2.844-5.704,4.476-12.116,4.476-18.931
		c0-19.3-12.841-35.579-30.43-40.822l14.206-56.572c26.372-18.264,38.208-49.372,38.208-76.427
		c47.431,37.874,102.215-16.909,102.215-16.909l-133.705-93.883L150.555,123.946z"/>
	<g>
		<g>
			<path style="fill:#564236;" d="M339.132,239.889h21.784l-7.047,9.549c0.908,2.029,1.438,4.246,1.438,6.593
				c0,8.935-7.232,16.175-16.175,16.175c-8.919,0-16.151-7.24-16.151-16.175C322.981,247.12,330.212,239.889,339.132,239.889z"/>
		</g>
		<g>
			<path style="fill:#564236;" d="M189.019,256.031c0,8.935-7.24,16.175-16.151,16.175c-8.943,0-16.175-7.24-16.175-16.175
				c0-2.347,0.53-4.564,1.43-6.593l-7.039-9.549h21.784C181.779,239.889,189.019,247.12,189.019,256.031z"/>
		</g>
	</g>
	<g>
		<path style="fill:#564236;" d="M341.221,407.98c0,10.084-8.171,18.256-18.264,18.256c-10.084,0-18.264-8.171-18.264-18.256
			c0-10.088,8.179-18.264,18.264-18.264C333.049,389.716,341.221,397.892,341.221,407.98z"/>
		<path style="fill:#564236;" d="M207.307,407.98c0,10.084-8.179,18.256-18.272,18.256c-10.076,0-18.255-8.171-18.255-18.256
			c0-10.088,8.179-18.264,18.255-18.264C199.127,389.716,207.307,397.892,207.307,407.98z"/>
	</g>
	<g>
		<path style="fill:#FBEFD9;" d="M422.721,163.474C474.46,160.433,512,123.5,512,74.196c0-41.614-29.626-84.53-71.199-95.687
			c-7.682-2.065-10.446,5.878-5.038,12.619c13.169,16.412,19.613,40.517,11.948,57.961c-4.652,10.579-11.932,20.293-22.128,23.615
			c-32.623,10.623-79.291-8.995-136.775-4.6c-26.387,2.37-46.676,20.899-46.676,46.676c0,14.592,7.102,37.199,37.54,46.327
			C306.388,169.115,356.776,167.536,422.721,163.474z"/>
		<path style="fill:#FBEFD9;" d="M89.279,163.474C37.532,160.433,0,123.5,0,74.196c0-41.614,29.626-84.53,71.199-95.687
			c7.682-2.065,10.446,5.878,5.031,12.619C63.068,7.54,56.624,31.646,64.298,49.09c4.652,10.579,11.924,20.293,22.12,23.615
			c32.615,10.623,79.291-8.995,136.775-4.6c26.379,2.37,46.669,20.899,46.669,46.676c0,14.592-7.095,37.199-37.533,46.327
			C205.62,169.115,155.223,167.536,89.279,163.474z"/>
	</g>
</g>
</svg>