<?xml version="1.0" encoding="utf-8"?>
<!-- Uploaded to: SVG Repo, www.svgrepo.com, Generator: SVG Repo Mixer Tools -->
<!DOCTYPE svg PUBLIC "-//W3C//DTD SVG 1.1//EN" "http://www.w3.org/Graphics/SVG/1.1/DTD/svg11.dtd">
<svg xmlns="http://www.w3.org/2000/svg" xmlns:xlink="http://www.w3.org/1999/xlink" version="1.1" id="Layer_1"  width="512" height="512" viewBox="0 0 512 512" enable-background="new 0 0 512 512" xml:space="preserve">
<g id="sausage_2">
	<g>
		<path fill="#FECD57" d="M290.702,192.009c0,0,21.422,181.646-34.702,181.646c-56.14,0-34.718-181.653-34.718-181.653    c-25.546,0-46.265,20.719-46.265,46.28c0,0,0,69.405,0,115.686c0,37.78,14.109,75.545,52.062,88.154v69.874h57.842v-69.624    c38.312-12.359,52.062-50.374,52.062-88.404c0-46.28,0-115.686,0-115.686C336.983,212.72,316.265,192.001,290.702,192.009z"/>
	</g>
	<g>
		<g>
			<path fill="#F5BA45" d="M336.983,259.602c0-12.914,0-21.32,0-21.32c0-25.562-20.719-46.28-46.281-46.272     c0,0,0.984,8.312,1.969,21.383C317.312,214.423,336.968,234.711,336.983,259.602z"/>
		</g>
		<g>
			<path fill="#F5BA45" d="M219.313,213.392c1-13.07,1.969-21.391,1.969-21.391c-25.546,0-46.265,20.719-46.265,46.28     c0,0,0,8.414,0,21.32C175.017,234.711,194.673,214.423,219.313,213.392z"/>
		</g>
		<g>
			<path fill="#F5BA45" d="M256,394.997c34.14,0,39.593-67.249,38.624-119.903c-0.969,47.842-8.969,98.561-38.624,98.561     c-29.671,0-37.671-50.719-38.624-98.561C216.407,327.764,221.844,394.997,256,394.997z"/>
		</g>
	</g>
	<g>
		<polygon fill="#E8563F" points="49.895,93.573 0.005,155.119 73.082,193.337 85.082,152.893   "/>
	</g>
	<g>
		<polygon fill="#E8563F" points="462.09,93.573 511.995,155.119 438.919,193.337 426.919,152.893   "/>
	</g>
	<g>
		<path fill="#E5E8EC" d="M349.623,89.315c-0.328-0.43-8.265-10.461-0.734-18.023c16.75-16.82,7.781-37.46,0.672-46.062v-0.016    l-0.016-0.016l0,0c-1.969-2.352-4.921-3.859-8.218-3.859c-5.891,0-10.672,4.773-10.672,10.664c0,2.594,0.922,4.961,2.469,6.812    h-0.016c0.031,0.023,2.281,2.938,3.375,6.656c1.266,4.359,0.453,7.578-2.719,10.766c-16.703,16.765-7.781,37.726-0.734,46.46l0,0    c1.953,2.422,4.938,3.977,8.297,3.977c5.89,0,10.671-4.773,10.671-10.672C351.998,93.472,351.107,91.144,349.623,89.315    L349.623,89.315z"/>
		<path fill="#E5E8EC" d="M274.483,25.348c-3.172-11.945-9.312-20.226-9.999-21.132l-0.016,0.008    c-1.938-2.555-5.016-4.219-8.469-4.219c-5.891,0-10.672,4.781-10.672,10.672c0,2.406,0.812,4.617,2.156,6.406l-0.016,0.008    c0.047,0.062,4.5,6.102,6.547,14.312c2.453,9.836,0.484,18.195-6.016,25.539c-11.39,12.89-15.015,28.702-10.484,45.726    c3.172,11.938,9.296,20.226,9.984,21.132l0.016-0.008c1.953,2.555,5.016,4.211,8.484,4.211c5.891,0,10.656-4.773,10.656-10.664    c0-2.406-0.797-4.617-2.141-6.406v-0.008c-0.047-0.062-4.484-6.102-6.531-14.312c-2.453-9.836-0.5-18.195,6-25.539    C275.374,58.184,279.015,42.379,274.483,25.348z"/>
		<path fill="#E5E8EC" d="M178.908,25.231l-0.016-0.016l-0.016-0.016l0,0c-1.953-2.352-4.906-3.859-8.219-3.859    c-5.89,0-10.656,4.773-10.656,10.664c0,2.594,0.922,4.961,2.453,6.812l0,0c0.016,0.023,2.266,2.938,3.359,6.656    c1.281,4.359,0.469,7.578-2.703,10.766c-16.703,16.765-7.797,37.726-0.75,46.46l0,0c1.953,2.422,4.953,3.977,8.296,3.977    c5.891,0,10.672-4.773,10.672-10.672c0-2.531-0.891-4.859-2.359-6.688l0,0c-0.344-0.43-8.281-10.461-0.75-18.023    C194.97,54.473,186.001,33.832,178.908,25.231z"/>
	</g>
	<g>
		<path fill="#FB6D51" d="M469.324,192.001c0-35.343-28.655-63.999-63.999-63.999c-19.672,0-37.265,8.882-49.015,22.843    c-0.062,0.086-8.797,9.477-23.937,19.015c-23.312,14.695-49,22.14-76.374,22.14c-25.968,0-50.515-6.734-72.936-20.031    c-15.281-9.062-24.765-18.429-27.281-21.054l-1.25-1.398l0,0c-11.734-13.195-28.828-21.515-47.874-21.515    c-35.343,0-63.999,28.656-63.999,63.999c0,15.68,5.641,30.031,15,41.163l0,0c0.156,0.18,0.344,0.406,0.562,0.656    c0.016,0.031,0.047,0.062,0.078,0.102c4.594,5.344,22.515,24.969,53.062,44.234c43.452,27.374,93.451,41.842,144.638,41.842    c51.171,0,101.186-14.468,144.622-41.842c30.578-19.273,48.499-38.914,53.077-44.25c0.016-0.023,0.031-0.047,0.062-0.062    c0.219-0.258,0.422-0.492,0.578-0.68h-0.016C463.684,222.032,469.324,207.681,469.324,192.001z"/>
	</g>
	<path fill="#E8563F" d="M341.327,224c5.89,0,10.671-4.773,10.671-10.664c0,0,0,0,0-0.008v-58.296   c-4.016,3.648-10.702,9.211-19.624,14.828c-0.562,0.359-1.141,0.711-1.719,1.062v42.406c0,0.008,0,0.008,0,0.008   C330.655,219.227,335.437,224,341.327,224z"/>
	<path fill="#E8563F" d="M266.656,236L266.656,236v-44.382c-3.516,0.258-7.078,0.383-10.656,0.383   c-3.594,0-7.141-0.133-10.672-0.383V236l0,0c0,5.891,4.781,10.672,10.672,10.672S266.656,241.891,266.656,236z"/>
	<path fill="#E8563F" d="M170.658,224c5.891,0,10.672-4.773,10.672-10.664c0,0,0,0,0-0.008v-42.406   c-9.75-5.96-16.968-11.929-21.328-15.929v58.335c0,0.008,0,0.008,0,0.008C160.002,219.227,164.768,224,170.658,224z"/>
</g>
</svg>